<svg xmlns="http://www.w3.org/2000/svg" width="204" height="204" fill="none" viewBox="0 0 204 204"><rect width="204" height="204" fill="url(#a)" rx="48"/><path fill="#ece9f3" d="M89.955 90.113a9.74 9.74 0 0 1 9.795-5.672l58.926 5.617c6.657.635 10.71 7.634 7.947 13.724l-25.707 56.646a9.74 9.74 0 0 1-9.795 5.672l-58.926-5.618c-6.657-.634-10.71-7.634-7.947-13.723z" opacity=".5"/><path fill="#ece9f3" d="M76.946 67.582a9.74 9.74 0 0 1 9.796-5.672l58.926 5.618c6.657.634 10.71 7.634 7.947 13.723l-25.707 56.646a9.74 9.74 0 0 1-9.795 5.672l-58.927-5.617c-6.657-.635-10.71-7.635-7.946-13.724z" opacity=".7"/><path fill="#ece9f3" d="M63.084 43.572a9.74 9.74 0 0 1 9.795-5.672l58.927 5.618c6.657.634 10.71 7.634 7.946 13.723l-25.706 56.646a9.74 9.74 0 0 1-9.796 5.672l-58.926-5.617c-6.657-.635-10.71-7.635-7.947-13.724z"/><defs><linearGradient id="a" x1="0" x2="204" y1="204" y2="0" gradientUnits="userSpaceOnUse"><stop stop-color="#f98b74"/><stop offset=".25" stop-color="#f13435"/><stop offset=".75" stop-color="#3c52d6"/><stop offset="1" stop-color="#2da6f4"/></linearGradient></defs></svg>